<svg width="96" height="96" viewBox="0 0 96 96" fill="none" xmlns="http://www.w3.org/2000/svg">
<path d="M25.672 72.576C21.832 72.576 18.472 71.976 15.592 70.776C12.712 69.528 10.48 67.776 8.896 65.52C7.36 63.216 6.592 60.552 6.592 57.528V55.944C6.592 55.704 6.664 55.512 6.808 55.368C7 55.176 7.216 55.08 7.456 55.08H15.664C15.904 55.08 16.096 55.176 16.24 55.368C16.432 55.512 16.528 55.704 16.528 55.944V57.024C16.528 58.944 17.416 60.576 19.192 61.92C20.968 63.216 23.368 63.864 26.392 63.864C28.936 63.864 30.832 63.336 32.08 62.28C33.328 61.176 33.952 59.832 33.952 58.248C33.952 57.096 33.568 56.136 32.8 55.368C32.032 54.552 30.976 53.856 29.632 53.28C28.336 52.656 26.248 51.816 23.368 50.76C20.152 49.656 17.416 48.528 15.16 47.376C12.952 46.224 11.08 44.664 9.544 42.696C8.056 40.68 7.312 38.208 7.312 35.28C7.312 32.4 8.056 29.88 9.544 27.72C11.032 25.56 13.096 23.904 15.736 22.752C18.376 21.6 21.424 21.024 24.88 21.024C28.528 21.024 31.768 21.672 34.6 22.968C37.48 24.264 39.712 26.088 41.296 28.44C42.928 30.744 43.744 33.432 43.744 36.504V37.584C43.744 37.824 43.648 38.04 43.456 38.232C43.312 38.376 43.12 38.448 42.88 38.448H34.6C34.36 38.448 34.144 38.376 33.952 38.232C33.808 38.04 33.736 37.824 33.736 37.584V37.008C33.736 34.992 32.896 33.288 31.216 31.896C29.584 30.456 27.328 29.736 24.448 29.736C22.192 29.736 20.416 30.216 19.12 31.176C17.872 32.136 17.248 33.456 17.248 35.136C17.248 36.336 17.608 37.344 18.328 38.16C19.096 38.976 20.2 39.72 21.64 40.392C23.128 41.016 25.408 41.88 28.48 42.984C31.888 44.232 34.552 45.336 36.472 46.296C38.44 47.256 40.192 48.696 41.728 50.616C43.312 52.488 44.104 54.936 44.104 57.96C44.104 62.472 42.448 66.048 39.136 68.688C35.824 71.28 31.336 72.576 25.672 72.576ZM68.9243 72.576C65.1803 72.576 61.8923 71.856 59.0603 70.416C56.2283 68.928 54.0443 66.864 52.5083 64.224C50.9723 61.584 50.2043 58.536 50.2043 55.08V38.448C50.2043 34.992 50.9723 31.944 52.5083 29.304C54.0443 26.664 56.2283 24.624 59.0603 23.184C61.8923 21.744 65.1803 21.024 68.9243 21.024C72.6203 21.024 75.8603 21.72 78.6443 23.112C81.4763 24.456 83.6603 26.4 85.1963 28.944C86.7803 31.44 87.5723 34.344 87.5723 37.656C87.5723 38.088 87.2843 38.352 86.7083 38.448L78.2843 38.952H78.1403C77.6603 38.952 77.4203 38.688 77.4203 38.16C77.4203 35.616 76.6283 33.576 75.0443 32.04C73.5083 30.504 71.4683 29.736 68.9243 29.736C66.3323 29.736 64.2443 30.504 62.6603 32.04C61.1243 33.576 60.3563 35.616 60.3563 38.16V55.512C60.3563 58.008 61.1243 60.024 62.6603 61.56C64.2443 63.096 66.3323 63.864 68.9243 63.864C71.4683 63.864 73.5083 63.096 75.0443 61.56C76.6283 60.024 77.4203 58.008 77.4203 55.512C77.4203 54.984 77.7083 54.72 78.2843 54.72L86.7083 55.08C86.9483 55.08 87.1403 55.152 87.2843 55.296C87.4763 55.44 87.5723 55.608 87.5723 55.8C87.5723 59.112 86.7803 62.04 85.1963 64.584C83.6603 67.128 81.4763 69.096 78.6443 70.488C75.8603 71.88 72.6203 72.576 68.9243 72.576Z" fill="#141B2F"/>
</svg>
