<svg width="61" height="97" viewBox="0 0 61 97" fill="none" xmlns="http://www.w3.org/2000/svg">
<g clip-path="url(#clip0_4334_1663)">
<path d="M25.6875 33.75L19.6875 11.75C19.1875 8.75 19.5875 2.75 25.1875 2.75C30.7875 2.75 32.6564 9.25 33.1875 11.75C35.7368 23.75 39.6875 37.75 39.6875 37.75L47.1875 8.25C47.6875 6.41667 49.5875 2.75 53.1875 2.75C57.6875 2.75 59.6875 4.75 59.6875 8.25C59.6875 11.75 54 30.0187 54 42.25C54 54.4813 55 55.4636 55 55.4636C57.2024 57.8729 58.6875 61.3314 58.6875 66.25C58.6875 79.75 52.9875 94.25 32.1875 94.25C6.1875 94.25 2.1875 76.25 1.6875 65.25C1.29274 56.5652 1.20965 54.4256 1.43823 48.25C1.49917 46.6037 1.58226 44.6705 1.68749 42.25C1.68749 38.75 3.6875 36.25 7.6875 36.25C11.641 36.25 14.6176 37.2269 14.6863 38.6979C14.7699 37.6066 15.4368 33.6364 19.6875 33.25C25.1875 32.75 24.8542 33.4167 25.6875 33.75Z" fill="url(#paint0_linear_4334_1663)"/>
<path d="M25.6875 33.75L19.6875 11.75C19.1875 8.75 19.5875 2.75 25.1875 2.75C30.7875 2.75 32.6564 9.25 33.1875 11.75C35.7368 23.75 39.6875 37.75 39.6875 37.75L47.1875 8.25C47.6875 6.41667 49.5875 2.75 53.1875 2.75C57.6875 2.75 59.6875 4.75 59.6875 8.25C59.6875 11.75 54 30.0187 54 42.25C54 54.4813 55 55.4636 55 55.4636M25.6875 33.75C24.8542 33.4167 25.1875 32.75 19.6875 33.25C14.1875 33.75 14.6875 40.25 14.6875 38.75M25.6875 33.75C27.0208 34.9167 29.1875 36.75 29.1875 41.75C29.1875 44.25 29.1875 48.3886 29.1875 50.25M14.6875 38.75C14.6875 37.25 11.6875 36.25 7.6875 36.25C3.6875 36.25 1.68749 38.75 1.68749 42.25C1.58226 44.6705 1.49917 46.6037 1.43823 48.25M14.6875 38.75L15.1875 51.75M39.6875 68.75C40.3542 66.75 39.4875 62.65 30.6875 62.25C25.1352 61.9976 22.3854 59.9618 21.0236 57.75M1.43823 48.25C1.20965 54.4256 1.29274 56.5652 1.6875 65.25C2.1875 76.25 6.1875 94.25 32.1875 94.25C52.9875 94.25 58.6875 79.75 58.6875 66.25C58.6875 61.3314 57.2024 57.8729 55 55.4636M1.43823 48.25C1.68799 51.0833 3.3875 56.75 8.1875 56.75C12.9875 56.75 14.6875 53.4167 15.1875 51.75M15.1875 51.75C16.0782 53.75 18.4925 57.75 21.0236 57.75M21.0236 57.75C19.6875 55.5799 19.6875 53.7405 19.6875 52.75C19.6875 51.25 21.1875 50.25 21.6875 50.25C22.1875 50.25 24.375 50.25 29.1875 50.25M29.1875 50.25C34 50.25 34.5 50.25 41 50.25C45.1318 50.25 51.1576 51.2601 55 55.4636" stroke="#0B101D" stroke-width="3"/>
</g>
<defs>
<linearGradient id="paint0_linear_4334_1663" x1="30" y1="63" x2="30" y2="100" gradientUnits="userSpaceOnUse">
<stop stop-color="#FFB452"/>
<stop offset="1" stop-color="#513B1D"/>
</linearGradient>
<clipPath id="clip0_4334_1663">
<rect width="61" height="97" fill="white"/>
</clipPath>
</defs>
</svg>
