<svg width="61" height="93" viewBox="0 0 61 93" fill="none" xmlns="http://www.w3.org/2000/svg">
<g clip-path="url(#clip0_4334_1660)">
<path d="M25.6875 31.75L19.6875 9.75C19.1875 6.75 19.5875 0.75 25.1875 0.75C30.7875 0.75 32.6564 7.25 33.1875 9.75C35.7368 21.75 39.6875 35.75 39.6875 35.75L47.1875 6.25C47.6875 4.41667 49.5875 0.75 53.1875 0.75C57.6875 0.75 59.6875 2.75 59.6875 6.25C59.6875 9.75 54.1875 31.75 54.1875 38.75V53.75C54.1875 53.75 58.6875 56.75 58.6875 64.25C58.6875 73.75 52.9875 92.25 32.1875 92.25C6.1875 92.25 2.1875 74.25 1.6875 63.25C1.29274 54.5652 1.20965 52.4256 1.43823 46.25C1.49917 44.6037 1.58226 42.6705 1.68749 40.25C1.68749 36.75 3.6875 34.25 7.6875 34.25C11.641 34.25 14.6176 35.2269 14.6863 36.6979C14.7699 35.6066 15.4368 31.6364 19.6875 31.25C25.1875 30.75 24.8542 31.4167 25.6875 31.75Z" fill="url(#paint0_radial_4334_1660)"/>
<path d="M25.6875 31.75L19.6875 9.75C19.1875 6.75 19.5875 0.75 25.1875 0.75C30.7875 0.75 32.6564 7.25 33.1875 9.75C35.7368 21.75 39.6875 35.75 39.6875 35.75L47.1875 6.25C47.6875 4.41667 49.5875 0.75 53.1875 0.75C57.6875 0.75 59.6875 2.75 59.6875 6.25C59.6875 9.75 54.1875 31.75 54.1875 38.75C54.1875 45.75 54.1875 53.75 54.1875 53.75M25.6875 31.75C24.8542 31.4167 25.1875 30.75 19.6875 31.25C14.1875 31.75 14.6875 38.25 14.6875 36.75M25.6875 31.75C27.0208 32.9167 29.1875 34.75 29.1875 39.75C29.1875 42.25 29.1875 46.3886 29.1875 48.25M54.1875 53.75C54.1875 53.75 58.6875 56.75 58.6875 64.25C58.6875 73.75 52.9875 92.25 32.1875 92.25C6.1875 92.25 2.1875 74.25 1.6875 63.25C1.29274 54.5652 1.20965 52.4256 1.43823 46.25M54.1875 53.75C51.6875 50.75 44.6875 47.75 40.6875 47.75C38.6875 47.75 33.9073 48.0655 29.1875 48.25M14.6875 36.75C14.6875 35.25 11.6875 34.25 7.6875 34.25C3.6875 34.25 1.68749 36.75 1.68749 40.25C1.58226 42.6705 1.49917 44.6037 1.43823 46.25M14.6875 36.75L15.1875 49.75M39.6875 66.75C40.3542 64.75 39.4875 60.65 30.6875 60.25C25.1352 59.9976 22.3854 57.9618 21.0236 55.75M1.43823 46.25C1.68799 49.0833 3.3875 54.75 8.1875 54.75C12.9875 54.75 14.6875 51.4167 15.1875 49.75M15.1875 49.75C16.0782 51.75 18.4925 55.75 21.0236 55.75M21.0236 55.75C19.6875 53.5799 19.6875 51.7405 19.6875 50.75C19.6875 49.25 21.1875 48.25 21.6875 48.25C22.1875 48.25 24.4677 48.4345 29.1875 48.25" stroke="#0BEAFF"/>
</g>
<defs>
<radialGradient id="paint0_radial_4334_1660" cx="0" cy="0" r="1" gradientUnits="userSpaceOnUse" gradientTransform="translate(30.1875 16.75) rotate(90.4228) scale(271.007 693.376)">
<stop stop-color="#D9D9D9" stop-opacity="0"/>
<stop offset="1" stop-color="#0BEAFF"/>
</radialGradient>
<clipPath id="clip0_4334_1660">
<rect width="61" height="93" fill="white"/>
</clipPath>
</defs>
</svg>
